<?xml version="1.0" encoding="UTF-8"?>
<svg version="1.1" viewBox="0 0 900 900" width="225" height="225" xmlns="http://www.w3.org/2000/svg">
<path transform="translate(0)" d="m0 0h900v900h-900z" fill="#FEFEFE"/>
<path transform="translate(498,84)" d="m0 0h19l20 4 15 6 12 7 11 8 12 12 9 13 7 14 5 15 3 18v15l-4 21-6 15-8 14-9 11-11 11-14 9-12 6-15 5-13 2h-23l-17-3-13-5-12-6-4-3-5 2-28 24-13 11-11 9-13 11-3 1 7 25 1 7v26l-2 11-5 15-8 15-1 4h2l9 11 9 10 9 11 7 8v2h2l5 7 4 1 21-11 17-6 19-5 20-3h28l20 3 19 5 16 6 17 8 16 10 13 10 12 11 11 12 11 15 9 16 7 14 6 17 5 20 2 14 1 26-4 27-5 19-6 16-13 25-11 15-9 10-8 9-11 9-13 10-16 9-17 8-26 8-20 4-9 1h-21l-21-3-21-5-25-10-18-10-15-11-14-12-7-7-11-14-12-18-8-15-7-19-5-19-3-19v-32l3-20 6-22 6-16 12-23 10-14 4-5-9-11-24-28-10-11-1-2-6 1-15 5-15 2h-20l-22-5-16-7-11-7-11-9-11-13-8-13-7-16-5-21v-25l4-18 6-15 8-14 12-14 10-9 11-7 12-6 21-6 7-1h21l20 4 15 6 12 6 4-1 11-10 10-8 42-36 5-4-1-8-3-9-2-13v-23l3-16 5-14 8-15 8-11 12-12 11-8 15-8 15-5z" fill="#4183F9"/>
<path transform="translate(498,84)" d="m0 0h19l20 4 15 6 12 7 11 8 12 12 9 13 7 14 5 15 3 18v15l-4 21-6 15-8 14-9 11-11 11-14 9-12 6-15 5-13 2h-23l-17-3-13-5-12-6-4-3-5 2-28 24-13 11-11 9-13 11-3 1 7 25 1 7v26l-2 11-5 15-8 15-3 5-8 10-12 12-18 11-23 8-15 2h-20l-22-5-16-7-11-7-11-9-11-13-8-13-7-16-5-21v-25l4-18 6-15 8-14 12-14 10-9 11-7 12-6 21-6 7-1h21l20 4 15 6 12 6 4-1 11-10 10-8 42-36 5-4-1-8-3-9-2-13v-23l3-16 5-14 8-15 8-11 12-12 11-8 15-8 15-5z" fill="#ED483D"/>
<path transform="translate(489,516)" d="m0 0h35l19 4 13 5 14 7 14 10 10 9 7 7 11 15 8 15 6 18 3 16 1 22-3 21-4 13-5 12-7 13-9 12-9 10-10 9-15 10-17 8-21 6-14 2h-15l-20-3-17-5-21-10-14-10-8-7-7-8-12-17-8-16-6-20-3-18v-20l4-20 5-15 8-16 8-12 11-12 5-5 14-11 18-10 18-6z" fill="#FEFEFE"/>
<path transform="translate(271,272)" d="m0 0h21l20 4 15 6 8 4 11 7 12 11 8 9 8 13 3 5 7 25 1 7v26l-2 11-5 15-8 15-3 5-8 10-12 12-18 11-23 8-15 2h-20l-22-5-16-7-11-7-11-9-11-13-8-13-7-16-5-21v-25l4-18 6-15 8-14 12-14 10-9 11-7 12-6 21-6z" fill="#FEBA0E"/>
<path transform="translate(368,433)" d="m0 0 3 1 9 11 9 10 9 11 7 8v2h2l5 7 4 1 21-11 17-6 19-5 20-3h28l20 3 19 5 16 6 17 8 16 10 13 10 12 11 11 12 11 15 9 16 7 14 6 17 5 20 2 14v17h-55l-1-2-2-20-5-19-7-16-9-14-9-11-10-10-14-10-10-6-17-7-16-4-6-1h-35l-20 5-13 5-16 9-14 11-4 2-2 4-10 11h-2l-4-4v-2l-4-2-7-8-9-10-7-9-11-13-9-11-13-15-11-12-6-8v-2l14-8 9-7 11-11z" fill="#39A65C"/>
<path transform="translate(274,328)" d="m0 0h16l13 4 10 7 8 8 4 6 4 12 1 5v10l-4 14-6 10-4 5-13 9-11 4-11 1-14-3-13-7-10-10-6-12-2-6v-19l4-12 7-10 7-7 16-8z" fill="#FEFEFE"/>
<path transform="translate(498,141)" d="m0 0h19l10 3 11 7 9 10 6 13 2 10v7l-4 15-6 11-8 8-10 6-11 3h-18l-11-4-11-7-7-8-6-12-2-8v-17l4-11 6-9 5-6 9-6 9-4z" fill="#FEFEFE"/>
</svg>
